<?xml version="1.0" encoding="UTF-8" standalone="no"?>
<!-- Created with Inkscape (http://www.inkscape.org/) -->

<svg
   xmlns:dc="http://purl.org/dc/elements/1.1/"
   xmlns:cc="http://creativecommons.org/ns#"
   xmlns:rdf="http://www.w3.org/1999/02/22-rdf-syntax-ns#"
   xmlns:svg="http://www.w3.org/2000/svg"
   xmlns="http://www.w3.org/2000/svg"
   xmlns:xlink="http://www.w3.org/1999/xlink"
   xmlns:sodipodi="http://sodipodi.sourceforge.net/DTD/sodipodi-0.dtd"
   xmlns:inkscape="http://www.inkscape.org/namespaces/inkscape"
   width="181.70103mm"
   height="43.960587mm"
   viewBox="0 0 643.82257 155.76586"
   id="svg2"
   version="1.1"
   inkscape:version="0.92.3 (2405546, 2018-03-11)"
   sodipodi:docname="backtothedojo.svg"
   inkscape:export-filename="C:\Users\gregb\Desktop\backtothehour.png"
   inkscape:export-xdpi="205.14626"
   inkscape:export-ydpi="205.14626">
  <defs
     id="defs4">
    <linearGradient
       inkscape:collect="always"
       id="linearGradient4249">
      <stop
         style="stop-color:#c60b33;stop-opacity:1"
         offset="0"
         id="stop4251" />
      <stop
         style="stop-color:#d97927;stop-opacity:0.89905363"
         offset="1"
         id="stop4253" />
    </linearGradient>
    <linearGradient
       inkscape:collect="always"
       xlink:href="#linearGradient4249"
       id="linearGradient4287"
       x1="586.10272"
       y1="541.7738"
       x2="585.03839"
       y2="490.62152"
       gradientUnits="userSpaceOnUse" />
    <linearGradient
       inkscape:collect="always"
       xlink:href="#linearGradient4249"
       id="linearGradient5731"
       gradientUnits="userSpaceOnUse"
       x1="393.49756"
       y1="372.69348"
       x2="397.53824"
       y2="416.44055" />
    <linearGradient
       inkscape:collect="always"
       xlink:href="#linearGradient4249"
       id="linearGradient5735"
       gradientUnits="userSpaceOnUse"
       x1="151.6539"
       y1="506.18713"
       x2="240.21992"
       y2="506.18713" />
    <linearGradient
       inkscape:collect="always"
       xlink:href="#linearGradient4249"
       id="linearGradient5737"
       gradientUnits="userSpaceOnUse"
       x1="151.6539"
       y1="506.18713"
       x2="240.21992"
       y2="506.18713" />
    <linearGradient
       inkscape:collect="always"
       xlink:href="#linearGradient4249"
       id="linearGradient5135"
       gradientUnits="userSpaceOnUse"
       x1="393.49756"
       y1="372.69348"
       x2="397.53824"
       y2="416.44055"
       gradientTransform="matrix(1.0003927,0,0.23320158,0.85528984,19.600209,98.839132)" />
    <linearGradient
       inkscape:collect="always"
       xlink:href="#linearGradient4249"
       id="linearGradient5137"
       gradientUnits="userSpaceOnUse"
       x1="393.49756"
       y1="372.69348"
       x2="397.53824"
       y2="416.44055"
       gradientTransform="matrix(1.0003927,0,0.23320158,0.85528984,23.600209,98.83913)" />
    <linearGradient
       inkscape:collect="always"
       xlink:href="#linearGradient4249"
       id="linearGradient5139"
       gradientUnits="userSpaceOnUse"
       x1="393.49756"
       y1="372.69348"
       x2="397.53824"
       y2="416.44055"
       gradientTransform="matrix(1.0003927,0,0.23320158,0.85528984,19.600209,98.839132)" />
    <linearGradient
       inkscape:collect="always"
       xlink:href="#linearGradient4249"
       id="linearGradient5141"
       gradientUnits="userSpaceOnUse"
       x1="393.49756"
       y1="372.69348"
       x2="397.53824"
       y2="416.44055"
       gradientTransform="matrix(1.0003927,0,0.23320158,0.85528984,19.600209,98.839132)" />
    <linearGradient
       inkscape:collect="always"
       xlink:href="#linearGradient4249"
       id="linearGradient5143"
       gradientUnits="userSpaceOnUse"
       x1="393.49756"
       y1="372.69348"
       x2="397.53824"
       y2="416.44055" />
    <linearGradient
       inkscape:collect="always"
       xlink:href="#linearGradient4249"
       id="linearGradient5145"
       gradientUnits="userSpaceOnUse"
       x1="586.10272"
       y1="541.7738"
       x2="585.03839"
       y2="490.62152" />
    <linearGradient
       inkscape:collect="always"
       xlink:href="#linearGradient4249"
       id="linearGradient5147"
       gradientUnits="userSpaceOnUse"
       x1="586.10272"
       y1="541.7738"
       x2="585.03839"
       y2="490.62152" />
    <linearGradient
       inkscape:collect="always"
       xlink:href="#linearGradient4249"
       id="linearGradient5149"
       gradientUnits="userSpaceOnUse"
       x1="586.10272"
       y1="541.7738"
       x2="585.03839"
       y2="490.62152" />
    <linearGradient
       inkscape:collect="always"
       xlink:href="#linearGradient4249"
       id="linearGradient5151"
       gradientUnits="userSpaceOnUse"
       x1="586.10272"
       y1="541.7738"
       x2="585.03839"
       y2="490.62152" />
    <linearGradient
       inkscape:collect="always"
       xlink:href="#linearGradient4249"
       id="linearGradient5153"
       gradientUnits="userSpaceOnUse"
       x1="586.10272"
       y1="541.7738"
       x2="585.03839"
       y2="490.62152" />
    <linearGradient
       inkscape:collect="always"
       xlink:href="#linearGradient4249"
       id="linearGradient5155"
       gradientUnits="userSpaceOnUse"
       x1="586.10272"
       y1="541.7738"
       x2="585.03839"
       y2="490.62152" />
    <linearGradient
       inkscape:collect="always"
       xlink:href="#linearGradient4249"
       id="linearGradient5157"
       gradientUnits="userSpaceOnUse"
       x1="151.6539"
       y1="506.18713"
       x2="240.21992"
       y2="506.18713" />
    <linearGradient
       inkscape:collect="always"
       xlink:href="#linearGradient4249"
       id="linearGradient5159"
       gradientUnits="userSpaceOnUse"
       x1="151.6539"
       y1="506.18713"
       x2="240.21992"
       y2="506.18713" />
    <linearGradient
       inkscape:collect="always"
       xlink:href="#linearGradient4249"
       id="linearGradient5161"
       gradientUnits="userSpaceOnUse"
       x1="151.6539"
       y1="506.18713"
       x2="240.21992"
       y2="506.18713" />
    <linearGradient
       inkscape:collect="always"
       xlink:href="#linearGradient4249"
       id="linearGradient5163"
       gradientUnits="userSpaceOnUse"
       x1="151.6539"
       y1="506.18713"
       x2="240.21992"
       y2="506.18713" />
    <linearGradient
       inkscape:collect="always"
       xlink:href="#linearGradient4249"
       id="linearGradient5165"
       gradientUnits="userSpaceOnUse"
       x1="151.6539"
       y1="506.18713"
       x2="240.21992"
       y2="506.18713" />
    <linearGradient
       inkscape:collect="always"
       xlink:href="#linearGradient4249"
       id="linearGradient5167"
       gradientUnits="userSpaceOnUse"
       x1="151.6539"
       y1="506.18713"
       x2="240.21992"
       y2="506.18713" />
  </defs>
  <sodipodi:namedview
     id="base"
     pagecolor="#ffffff"
     bordercolor="#666666"
     borderopacity="1.0"
     inkscape:pageopacity="1"
     inkscape:pageshadow="2"
     inkscape:zoom="0.91434689"
     inkscape:cx="207.33328"
     inkscape:cy="2.6693671"
     inkscape:document-units="px"
     inkscape:current-layer="layer1"
     showgrid="false"
     inkscape:window-width="1920"
     inkscape:window-height="1027"
     inkscape:window-x="-8"
     inkscape:window-y="-8"
     inkscape:window-maximized="1"
     fit-margin-top="0"
     fit-margin-left="1"
     fit-margin-right="1"
     fit-margin-bottom="0" />
  <metadata
     id="metadata7">
    <rdf:RDF>
      <cc:Work
         rdf:about="">
        <dc:format>image/svg+xml</dc:format>
        <dc:type
           rdf:resource="http://purl.org/dc/dcmitype/StillImage" />
        <dc:title></dc:title>
      </cc:Work>
    </rdf:RDF>
  </metadata>
  <g
     inkscape:label="Layer 1"
     inkscape:groupmode="layer"
     id="layer1"
     transform="translate(-28.50046,-323.90892)">
    <g
       id="g4377"
       transform="translate(0,-88.125001)">
      <path
         d="m 216.93563,417.5924 7.71595,10.46919 1.59078,2.47026 1.04215,1.80368 q -15.63297,-0.31369 -23.79651,-0.31369 -8.11769,0 -8.90974,0.62737 -0.80275,0.58816 -0.62581,2.07815 0.21212,1.45079 2.28261,5.17578 2.10566,3.68578 5.57899,9.52814 3.46264,5.80314 5.64314,9.7634 2.1805,3.96025 3.38161,5.84236 1.23628,1.84288 2.01114,2.6663 0.81004,0.78421 3.60875,2.47026 2.78801,1.64684 7.0991,1.64684 4.31109,0 28.20552,0 l 2.85124,5.41104 4.39384,10.9005 q -43.93639,0 -44.39501,0 -0.45863,0 -3.11866,0 -2.61417,0 -7.66914,-2.39183 -5.01979,-2.43105 -7.03093,-5.09736 -2.01115,-2.66631 -5.00897,-8.78314 -2.96264,-6.15603 -7.75918,-14.66471 -4.79654,-8.50866 -8.49918,-14.35102 -3.65679,-5.84235 -6.09418,-9.56734 -2.43739,-3.725 -3.43986,-5.21499 -0.95661,-1.49 -2.03082,-3.41131 -1.08491,-1.96053 0.85123,-4.78367 1.97131,-2.86237 7.20275,-3.0192 5.2773,-0.15685 16.55641,0 11.27911,0.15683 28.36278,0.74499 z"
         style="font-style:normal;font-variant:normal;font-weight:normal;font-stretch:normal;font-size:medium;line-height:125%;font-family:'Back to the future 2002';-inkscape-font-specification:'Back to the future 2002, Normal';text-align:start;letter-spacing:0px;word-spacing:0px;writing-mode:lr-tb;text-anchor:start;fill:url(#linearGradient5135);fill-opacity:1;stroke:#d923a7;stroke-width:4.25500154;stroke-linecap:butt;stroke-linejoin:miter;stroke-miterlimit:4;stroke-dasharray:none;stroke-opacity:0.97791796"
         id="path4991"
         inkscape:connector-curvature="0" />
      <path
         d="m 287.09429,469.15413 q 0.18795,0.35289 1.10178,1.68605 0.91386,1.33316 2.3246,2.47025 1.45661,1.13711 3.56629,1.13711 2.15554,0 8.28734,0.11763 6.16698,0.0784 7.4756,0 1.34381,-0.11763 1.78896,-1.17631 0.43445,-1.0979 0.19785,-2.47026 -0.20143,-1.41158 -1.82568,-4.5092 -1.63494,-3.13684 -3.96062,-7.29314 -2.32569,-4.15631 -5.93661,-9.99866 -3.57575,-5.88157 -7.24182,-11.2534 -3.63091,-5.41104 -5.85789,-7.01867 -2.22697,-1.60762 -4.81666,-1.68605 -2.60037,-0.11763 -7.78286,-0.11763 -5.18247,0 -6.9849,0.11763 -1.76726,0.0784 -2.0962,1.05868 -0.28308,0.98027 0.60318,2.54868 0.93213,1.56842 4.88237,7.64603 3.98541,6.03842 6.21487,9.84182 2.26464,3.76421 3.86751,6.78341 1.64874,3.01921 6.19288,12.11603 z m -18.48231,10.42998 q -5.95536,-14.2726 -8.30381,-19.01707 -2.35914,-4.78367 -5.86455,-10.74366 -3.50541,-5.95998 -10.1851,-15.48812 -6.6797,-9.52814 -8.08704,-11.9984 -1.37217,-2.50946 0.32057,-4.03867 1.69273,-1.5292 6.83244,-1.68605 5.18558,-0.15684 20.04507,-0.15684 14.90535,0 22.28614,0.15684 7.38078,0.15685 12.52437,2.70552 5.1329,2.50947 11.44291,11.01814 6.29931,8.46945 12.02208,17.6839 5.72279,9.21446 9.12407,15.80181 3.43645,6.54815 5.64422,11.44945 2.20778,4.9013 1.75163,7.09709 -0.42097,2.15657 -2.473,3.88183 -2.06274,1.68605 -5.97485,1.80368 -3.90142,0.15684 -21.50957,0 -17.59745,-0.11763 -23.69719,-0.11763 -6.05386,0 -9.33258,-1.76447 -3.24355,-1.80368 -4.86501,-3.88183 -1.58629,-2.11737 -1.7008,-2.70552 z"
         style="font-style:normal;font-variant:normal;font-weight:normal;font-stretch:normal;font-size:medium;line-height:125%;font-family:'Back to the future 2002';-inkscape-font-specification:'Back to the future 2002, Normal';text-align:start;letter-spacing:0px;word-spacing:0px;writing-mode:lr-tb;text-anchor:start;fill:url(#linearGradient5137);fill-opacity:1;stroke:#d923a7;stroke-width:4.25500154;stroke-linecap:butt;stroke-linejoin:miter;stroke-miterlimit:4;stroke-dasharray:none;stroke-opacity:0.97791796"
         id="path4993"
         inkscape:connector-curvature="0" />
      <path
         d="m 315.77718,417.78846 -0.87728,-0.86263 h 25.7748 q 28.34899,0.86263 31.2718,1.48999 2.91212,0.58816 5.47703,1.92131 2.55421,1.29395 5.75468,4.1171 3.24633,2.82315 7.08548,6.97946 3.82846,4.11709 8.83633,11.21418 5.04304,7.05788 10.55169,16.66444 5.55452,9.60655 7.01531,12.27287 1.46079,2.6663 1.93259,4.90131 0.46111,2.19577 0.42533,4.58762 -6.2e-4,2.35262 -1.38301,3.84262 -1.39307,1.45078 -4.54101,2.35262 -3.15863,0.86263 -55.32132,1.1371 -5.22496,-12.93944 -8.84797,-19.33074 -3.57714,-6.3913 -7.52258,-13.29234 -3.95614,-6.94025 -10.26753,-15.95865 -6.26554,-9.0184 -15.36434,-22.03626 z m 58.0983,54.4633 q 15.86847,0 17.59917,-0.54895 1.73069,-0.54895 1.92064,-2.03895 0.22513,-1.5292 -2.70265,-6.54814 -2.92778,-5.01893 -5.84797,-9.84182 -2.88502,-4.86209 -6.77142,-9.52813 -3.88641,-4.66604 -6.51825,-7.25394 -2.58597,-2.58788 -5.1126,-4.11709 -2.52663,-1.52921 -6.82083,-1.80369 -4.24834,-0.27447 -13.74191,-0.27447 5.39027,6.31289 7.98523,9.60656 2.59497,3.29368 5.25098,6.97946 2.65602,3.68578 5.67103,8.35182 3.06087,4.66604 5.28413,8.78315 2.26913,4.11709 3.80445,8.23419 z"
         style="font-style:normal;font-variant:normal;font-weight:normal;font-stretch:normal;font-size:medium;line-height:125%;font-family:'Back to the future 2002';-inkscape-font-specification:'Back to the future 2002, Normal';text-align:start;letter-spacing:0px;word-spacing:0px;writing-mode:lr-tb;text-anchor:start;fill:url(#linearGradient5139);fill-opacity:1;stroke:#d923a7;stroke-width:4.25500154;stroke-linecap:butt;stroke-linejoin:miter;stroke-miterlimit:4;stroke-dasharray:none;stroke-opacity:0.97791796"
         id="path4995"
         inkscape:connector-curvature="0" />
      <path
         d="m 436.71088,487.73988 q -4.20559,-11.72392 -7.74106,-19.64443 -3.54616,-7.95972 -7.53437,-15.0176 -3.94234,-7.05788 -8.64747,-14.39023 -4.65924,-7.33235 -14.14912,-21.44811 h 21.23439 l 38.07665,0.0392 q 8.38421,9.72418 11.37614,14.97838 l -38.82876,-0.27447 q 4.94064,7.01867 7.83944,11.76313 l 38.78289,0.27448 q 3.79887,6.19525 7.68435,14.39023 h -38.75392 q 5.53562,11.72392 6.47503,14.6647 l 39.70015,0.27448 q 2.77889,7.33235 4.92639,14.70391 H 436.7964 l -0.0855,-0.31369 z"
         style="font-style:normal;font-variant:normal;font-weight:normal;font-stretch:normal;font-size:medium;line-height:125%;font-family:'Back to the future 2002';-inkscape-font-specification:'Back to the future 2002, Normal';text-align:start;letter-spacing:0px;word-spacing:0px;writing-mode:lr-tb;text-anchor:start;fill:url(#linearGradient5141);fill-opacity:1;stroke:#d923a7;stroke-width:4.25500154;stroke-linecap:butt;stroke-linejoin:miter;stroke-miterlimit:4;stroke-dasharray:none;stroke-opacity:0.97791796"
         id="path4997"
         inkscape:connector-curvature="0" />
      <g
         id="text4140-6"
         style="font-style:normal;font-variant:normal;font-weight:normal;font-stretch:normal;font-size:155.49307251px;line-height:125%;font-family:'Back to the future 2002';-inkscape-font-specification:'Back to the future 2002, Normal';text-align:start;letter-spacing:0px;word-spacing:0px;writing-mode:lr-tb;text-anchor:start;fill:url(#linearGradient5731);fill-opacity:1;stroke:#d923a7;stroke-width:4.5999999;stroke-linecap:butt;stroke-linejoin:miter;stroke-miterlimit:4;stroke-dasharray:none;stroke-opacity:0.97791796"
         transform="matrix(0.94668684,0,0.22912343,0.87299759,42.743549,98.225954)">
        <path
           inkscape:connector-curvature="0"
           id="path5000"
           style="fill:url(#linearGradient5143);fill-opacity:1;stroke:#d923a7;stroke-width:4.5999999;stroke-miterlimit:4;stroke-dasharray:none;stroke-opacity:0.97791796"
           d="m 386.15437,364.75493 8.95907,12.90714 51.62856,-0.22777 q 5.9221,12.83121 12.75529,27.63646 6.90912,14.72933 9.035,27.56054 l -51.93226,-0.15185 4.47954,16.17189 q -21.33475,-20.5755 -45.93424,-45.47869 z m 90.95737,13.05899 q 6.90912,13.21084 12.37567,26.4976 5.46655,13.28676 8.50353,28.31978 h -20.80328 q -0.30369,-10.17386 -9.79424,-30.44566 -9.49054,-20.34773 -12.07197,-24.75134 z m 29.68642,54.51369 q -2.04996,-9.71832 -4.70731,-17.84223 -2.65735,-8.1239 -17.00705,-36.82331 l 14.42562,0.15185 q 7.51651,13.36269 9.11093,17.31075 1.67033,3.87215 6.83319,16.24781 5.16285,12.37567 5.69432,20.95513 z m 24.06802,0 q -1.82218,-9.71832 -4.55546,-17.08298 -2.65735,-7.36467 -5.6184,-13.36269 -2.96105,-6.07395 -11.92013,-23.46062 h 9.87017 q 2.96105,3.72029 6.07395,9.87016 3.1129,6.14987 3.94806,8.12391 0.83517,1.89811 2.96105,5.99802 2.12589,4.02399 9.49055,29.83827 l -10.24979,0.0759 z m 17.23483,-0.53147 q -1.13887,-6.2258 -1.67034,-8.65538 -0.45554,-2.42958 -1.82218,-6.07395 -1.29072,-3.64437 -3.49252,-10.40164 -2.12588,-6.75726 -13.59046,-27.78831 l 6.2258,-0.22777 q 8.57945,13.28676 10.9331,20.5755 2.42958,7.28874 5.54248,15.79226 3.18882,8.42761 3.56844,16.85521 l -5.69432,-0.0759 z" />
      </g>
    </g>
    <g
       id="g4385"
       transform="translate(0,-88.125001)">
      <g
         id="text4146"
         style="font-style:normal;font-variant:normal;font-weight:normal;font-stretch:normal;font-size:80px;line-height:125%;font-family:'Back to the future 2002';-inkscape-font-specification:'Back to the future 2002, Normal';text-align:start;letter-spacing:0px;word-spacing:0px;writing-mode:lr-tb;text-anchor:start;fill:url(#linearGradient4287);fill-opacity:1;stroke:#d923a7;stroke-width:5;stroke-linecap:butt;stroke-linejoin:miter;stroke-miterlimit:4;stroke-dasharray:none;stroke-opacity:0.97647059"
         transform="matrix(1.0003927,0,-0.26678493,0.85528984,19.600209,98.839132)">
        <path
           inkscape:connector-curvature="0"
           id="path5003"
           style="fill:url(#linearGradient5145);fill-opacity:1;stroke:#d923a7;stroke-width:5;stroke-miterlimit:4;stroke-dasharray:none;stroke-opacity:0.97647059"
           d="m 361.72,541.36334 q 2.77344,-6.44531 3.78906,-9.33594 1.05469,-2.92968 3.35938,-10.82031 2.34375,-7.92969 3.67187,-14.96094 1.36719,-7.03125 2.22657,-14.33593 0.89843,-7.30469 2.22656,-20.82032 h 18.59375 l 33.28125,0.0391 q 0.35156,9.14062 -0.625,14.375 l -33.51563,-0.27344 q -0.50781,6.99219 -1.21093,11.71875 l 33.55468,0.27344 q -0.89843,6.17187 -3.125,14.33593 h -33.67187 q -3.51563,11.95313 -4.29688,14.29688 -0.78125,2.30469 -5.74218,15.50781 H 361.72 Z" />
        <path
           inkscape:connector-curvature="0"
           id="path5005"
           style="fill:url(#linearGradient5147);fill-opacity:1;stroke:#d923a7;stroke-width:5;stroke-miterlimit:4;stroke-dasharray:none;stroke-opacity:0.97647059"
           d="m 442.61844,470.73834 h 19.80469 q -0.46875,8.67188 -1.83594,15.78125 -1.36719,7.10938 -2.92969,14.25781 -1.5625,7.10938 -4.29687,14.96094 -2.73438,7.85156 -1.83594,9.60938 0.89844,1.75781 3.47656,1.64062 2.61719,-0.15625 5.58594,-0.15625 2.96875,0 4.96094,-0.58594 1.99218,-0.58593 3.125,-2.65625 1.13281,-2.07031 3.00781,-7.96875 1.91406,-5.9375 3.71094,-13.78906 1.79687,-7.89062 2.92968,-15.15625 1.17188,-7.30469 1.25,-15.89844 h 18.20313 q 0.46875,6.83594 -0.19531,12.92969 -0.625,6.05469 -1.95313,13.04688 -1.32812,6.95312 -3.90625,15.85937 -2.53906,8.90625 -5.9375,16.17188 -3.35937,7.22656 -8.24219,9.76562 -4.88281,2.53906 -15.27343,2.53906 -10.39063,0 -20.27344,0.15625 -9.84375,0.15625 -12.8125,-2.22656 -2.92969,-2.38281 -0.15625,-9.0625 2.8125,-6.67969 5.625,-15.66406 2.85156,-9.02344 4.57031,-18.55469 1.71875,-9.53125 3.39844,-25 z" />
        <path
           inkscape:connector-curvature="0"
           id="path5007"
           style="fill:url(#linearGradient5149);fill-opacity:1;stroke:#d923a7;stroke-width:5;stroke-miterlimit:4;stroke-dasharray:none;stroke-opacity:0.97647059"
           d="m 564.29813,470.85553 q -0.74219,9.92187 -1.09375,12.69531 -0.35157,2.77344 -0.35157,2.77344 h -19.41406 q -0.85937,10.78125 -2.1875,17.65625 -1.28906,6.83594 -3.00781,13.39844 -1.71875,6.5625 -4.29688,13.86718 -2.53906,7.26563 -3.71093,9.84375 h -19.49219 l 6.52344,-19.76562 q 6.875,-23.28125 6.44531,-35.03906 h -19.41406 l 0.9375,-10.46875 0.0391,-4.96094 h 2.96875 56.05469 z" />
        <path
           inkscape:connector-curvature="0"
           id="path5009"
           style="fill:url(#linearGradient5151);fill-opacity:1;stroke:#d923a7;stroke-width:5;stroke-miterlimit:4;stroke-dasharray:none;stroke-opacity:0.97647059"
           d="m 576.83719,470.73834 h 19.80469 q -0.46875,8.67188 -1.83594,15.78125 -1.36719,7.10938 -2.92969,14.25781 -1.5625,7.10938 -4.29687,14.96094 -2.73438,7.85156 -1.83594,9.60938 0.89844,1.75781 3.47656,1.64062 2.61719,-0.15625 5.58594,-0.15625 2.96875,0 4.96094,-0.58594 1.99218,-0.58593 3.125,-2.65625 1.13281,-2.07031 3.00781,-7.96875 1.91406,-5.9375 3.71094,-13.78906 1.79687,-7.89062 2.92968,-15.15625 1.17188,-7.30469 1.25,-15.89844 h 18.20313 q 0.46875,6.83594 -0.19531,12.92969 -0.625,6.05469 -1.95313,13.04688 -1.32812,6.95312 -3.90625,15.85937 -2.53906,8.90625 -5.9375,16.17188 -3.35937,7.22656 -8.24219,9.76562 -4.88281,2.53906 -15.27343,2.53906 -10.39063,0 -20.27344,0.15625 -9.84375,0.15625 -12.8125,-2.22656 -2.92969,-2.38281 -0.15625,-9.0625 2.8125,-6.67969 5.625,-15.66406 2.85156,-9.02344 4.57031,-18.55469 1.71875,-9.53125 3.39844,-25 z" />
        <path
           inkscape:connector-curvature="0"
           id="path5011"
           style="fill:url(#linearGradient5153);fill-opacity:1;stroke:#d923a7;stroke-width:5;stroke-miterlimit:4;stroke-dasharray:none;stroke-opacity:0.97647059"
           d="m 628.08719,541.48053 q 6.5625,-14.72656 9.60937,-23.00781 3.04688,-8.28125 5.23438,-16.36719 2.22656,-8.125 3.67187,-16.67969 1.48438,-8.59375 1.91407,-15.50781 h 26.5625 q 20.625,0.54687 23.4375,3.59375 2.8125,3.00781 2.22656,7.96875 -0.58594,4.96094 -1.83594,10.97656 -1.21094,6.01563 -1.99219,8.20313 -0.78125,2.14843 -3.125,5.50781 -2.30468,3.35937 -11.99218,7.26562 5.66406,11.75782 7.77343,28.32032 h -20.70312 q -1.21094,-8.39844 -3.28125,-12.42188 -2.03125,-4.0625 -7.65625,-10 -1.40625,4.57031 -2.38281,6.91406 -0.97657,2.30469 -6.44532,15.23438 h -20.70312 z m 33.4375,-38.55469 q 8.51562,0 11.28906,-0.66406 2.77344,-0.66406 4.14063,-2.53906 1.40625,-1.875 1.875,-3.35938 0.50781,-1.52344 1.75781,-6.32812 1.28906,-4.84375 -1.32813,-5.78125 -2.61718,-0.9375 -12.92968,-0.66407 -1.09375,6.99219 -2.69532,12.5 -1.5625,5.50782 -2.10937,6.83594 z" />
        <path
           inkscape:connector-curvature="0"
           id="path5013"
           style="fill:url(#linearGradient5155);fill-opacity:1;stroke:#d923a7;stroke-width:5;stroke-miterlimit:4;stroke-dasharray:none;stroke-opacity:0.97647059"
           d="m 698.595,540.7774 q 4.92188,-11.67968 7.69531,-19.57031 2.8125,-7.92969 4.57032,-14.96094 1.75781,-7.03125 3.125,-14.33593 1.40625,-7.30469 3.59375,-21.09375 h 18.78906 l 32.22656,0.0391 q -0.46875,9.41406 -1.75781,14.64844 l -32.85156,-0.27344 q -0.97657,6.99219 -1.95313,11.71875 l 32.85156,0.27344 q -1.28906,6.17187 -3.98437,14.33593 h -33.00781 q -3.78907,11.67969 -5.19532,14.60938 l 33.67188,0.27344 q -3.00781,7.30468 -6.5625,14.64843 h -51.40625 l 0.19531,-0.3125 z" />
      </g>
      <g
         transform="matrix(0.86099488,0,-0.30997826,0.993764,17.600209,98.839132)"
         style="font-style:normal;font-variant:normal;font-weight:normal;font-stretch:normal;font-size:30.47862434px;line-height:125%;font-family:'Back to the future 2002';-inkscape-font-specification:'Back to the future 2002, Normal';text-align:start;letter-spacing:0px;word-spacing:0px;writing-mode:lr-tb;text-anchor:start;fill:url(#linearGradient5735);fill-opacity:1;stroke:#d923a7;stroke-width:2.20000005;stroke-linecap:butt;stroke-linejoin:miter;stroke-miterlimit:4;stroke-dasharray:none;stroke-opacity:0.97647059"
         id="text4140">
        <path
           d="m 367.74881,439.67681 q -0.28276,3.78006 -0.4167,4.83669 -0.13394,1.05663 -0.13394,1.05663 h -7.39642 q -0.32741,4.10747 -0.8334,6.72673 -0.49112,2.60438 -1.14593,5.10458 -0.65481,2.50019 -1.63703,5.28316 -0.96734,2.76807 -1.41381,3.75029 h -7.42619 l 2.48532,-7.53036 q 2.61926,-8.86975 2.45555,-13.34928 h -7.39642 l 0.35717,-3.98841 0.0149,-1.89003 h 1.13105 21.35587 z"
           style="fill:url(#linearGradient5157);fill-opacity:1;stroke:#d923a7;stroke-width:2.20000005;stroke-miterlimit:4;stroke-dasharray:none;stroke-opacity:0.97647059"
           id="path5016"
           inkscape:connector-curvature="0" />
        <path
           d="m 383.21135,460.08022 q -0.69946,2.0835 0,0 0.69946,-2.09838 0,0 z m -16.71264,6.36956 q 1.99421,-4.85158 2.78296,-7.21784 0.78875,-2.38114 1.42868,-4.91111 0.65482,-2.54484 1.01199,-5.13434 0.37205,-2.60437 0.5804,-4.62834 0.22324,-2.03886 0.58041,-5.08969 h 4.98551 l 2.78296,0.0149 q -0.37205,3.70565 -0.56552,5.52127 -0.19346,1.80074 -0.68458,4.73252 l 6.2505,0.11906 q 0.59529,-3.73542 0.86317,-6.20585 0.28276,-2.48532 0.23811,-4.07771 l 7.53037,0.0149 -0.29765,3.94377 q -0.44646,4.50929 -0.95245,7.38154 -0.49112,2.87226 -1.13105,5.37245 -0.62505,2.48532 -1.44357,4.80694 -0.81851,2.30673 -2.33649,5.47662 h -7.23272 q 1.62215,-4.40511 2.32161,-6.48861 0.69946,-2.09838 1.26498,-4.5837 l -6.26538,-0.10417 q -0.66969,2.2472 -1.4138,4.22652 -0.74411,1.97933 -2.84249,6.83091 h -7.33689 -0.11906 z m 25.40381,-10.26868 q 0.63993,-2.60437 0,0 -0.62505,2.58949 0,0 z"
           style="fill:url(#linearGradient5159);fill-opacity:1;stroke:#d923a7;stroke-width:2.20000005;stroke-miterlimit:4;stroke-dasharray:none;stroke-opacity:0.97647059"
           id="path5018"
           inkscape:connector-curvature="0" />
        <path
           d="m 393.79255,466.31584 q 1.87515,-4.44976 2.93179,-7.45595 1.07151,-3.02108 1.74121,-5.69986 0.66969,-2.67879 1.19057,-5.46175 0.53575,-2.78296 1.36915,-8.03636 h 7.15831 l 12.27777,0.0149 q -0.17859,3.58659 -0.6697,5.5808 l -12.51588,-0.10418 q -0.37205,2.66391 -0.7441,4.46465 l 12.51588,0.10417 q -0.49111,2.35138 -1.51798,5.46175 h -12.57541 q -1.44357,4.44976 -1.97932,5.56592 l 12.8284,0.10417 q -1.14592,2.78296 -2.5002,5.5808 h -19.5849 l 0.0744,-0.11905 z"
           style="fill:url(#linearGradient5161);fill-opacity:1;stroke:#d923a7;stroke-width:2.20000005;stroke-miterlimit:4;stroke-dasharray:none;stroke-opacity:0.97647059"
           id="path5020"
           inkscape:connector-curvature="0" />
      </g>
      <g
         transform="matrix(0.86099488,0,-0.60466976,0.993764,146.91842,98.839132)"
         style="font-style:normal;font-variant:normal;font-weight:normal;font-stretch:normal;font-size:30.47862434px;line-height:125%;font-family:'Back to the future 2002';-inkscape-font-specification:'Back to the future 2002, Normal';text-align:start;letter-spacing:0px;word-spacing:0px;writing-mode:lr-tb;text-anchor:start;fill:url(#linearGradient5737);fill-opacity:1;stroke:#d923a7;stroke-width:2.20000005;stroke-linecap:butt;stroke-linejoin:miter;stroke-miterlimit:4;stroke-dasharray:none;stroke-opacity:0.97647059"
         id="text4140-8">
        <path
           d="m 347.5929,432.06168 q -0.0744,-2.45555 -0.17858,-3.55683 -0.0893,-1.11616 -0.56553,-4.12235 -0.47622,-3.02108 -1.19057,-5.69986 -0.69946,-2.67879 -1.62215,-5.46175 -0.90781,-2.78296 -2.61926,-8.03635 6.83091,0 19.54025,0.0149 1.72633,3.5866 2.35138,5.5808 l -12.8284,-0.10417 q 1.01198,2.6639 1.5775,4.46464 l 12.82841,0.10417 q 0.71434,2.35138 1.27986,5.46175 h -12.8284 q 0.71434,4.55393 0.81852,5.44686 0.10417,0.87805 0.49111,5.90821 h -7.05414 z"
           style="fill:url(#linearGradient5163);fill-opacity:1;stroke:#d923a7;stroke-width:2.20000005;stroke-miterlimit:4;stroke-dasharray:none;stroke-opacity:0.97647059"
           id="path5023"
           inkscape:connector-curvature="0" />
        <path
           d="m 379.20257,424.78432 q 0.0298,0.13394 0.20835,0.63993 0.17858,0.50599 0.53576,0.93757 0.37205,0.43159 1.05663,0.43159 0.69946,0 2.67878,0.0446 1.99421,0.0298 2.42579,0 0.44647,-0.0446 0.68458,-0.44646 0.23811,-0.4167 0.28276,-0.93758 0.0595,-0.53575 -0.19347,-1.71144 -0.25299,-1.19057 -0.63993,-2.76808 -0.38693,-1.57751 -1.04175,-3.79495 -0.63993,-2.23232 -1.35427,-4.27117 -0.69946,-2.05374 -1.27987,-2.66391 -0.5804,-0.61016 -1.4138,-0.63993 -0.8334,-0.0446 -2.51508,-0.0446 -1.68169,0 -2.27697,0.0446 -0.5804,0.0298 -0.77387,0.40182 -0.17859,0.37205 -0.0298,0.96734 0.16371,0.59529 0.90781,2.90202 0.75899,2.29185 1.14593,3.73541 0.40182,1.42869 0.65481,2.57461 0.26788,1.14593 0.93758,4.59859 z m -6.9202,3.95865 q -0.66969,-5.4171 -1.01198,-7.21784 -0.34229,-1.81562 -0.95246,-4.07771 -0.61017,-2.26208 -1.93468,-5.87844 -1.32451,-3.61636 -1.56262,-4.55394 -0.22324,-0.95246 0.46134,-1.53286 0.68458,-0.5804 2.36626,-0.63993 1.69657,-0.0595 6.51838,-0.0595 4.8367,0 7.21784,0.0595 2.38114,0.0595 3.82471,1.02687 1.44357,0.95245 2.73831,4.18188 1.29475,3.21454 2.3365,6.71184 1.04175,3.49731 1.56262,5.99751 0.53576,2.48531 0.81852,4.34558 0.28276,1.86027 -0.0595,2.69367 -0.3274,0.81852 -1.14592,1.47333 -0.81852,0.63993 -2.09838,0.68458 -1.27987,0.0595 -6.97973,0 -5.69986,-0.0446 -7.67918,-0.0446 -1.96444,0 -2.87225,-0.66969 -0.89293,-0.68458 -1.23522,-1.47334 -0.32741,-0.80363 -0.31253,-1.02686 z"
           style="fill:url(#linearGradient5165);fill-opacity:1;stroke:#d923a7;stroke-width:2.20000005;stroke-miterlimit:4;stroke-dasharray:none;stroke-opacity:0.97647059"
           id="path5025"
           inkscape:connector-curvature="0" />
        <path
           d="m 394.14424,404.73807 q 10.17938,0.10418 13.9148,0.22323 3.7503,0.11906 4.64323,0.53576 0.90781,0.4167 1.90491,1.14593 1.01199,0.71434 1.81562,2.55973 0.81852,1.8305 1.48822,4.18188 0.66969,2.33649 0.80363,3.16989 0.14882,0.81852 -0.0744,2.09838 -0.22323,1.27987 -3.14013,2.76808 5.69986,4.52417 8.57211,10.78955 h -7.88753 q -2.12815,-3.19966 -3.70566,-4.73252 -1.5775,-1.54774 -5.10457,-3.48242 0.34229,1.96445 1.22034,8.11077 h -7.88754 q -0.53576,-5.61057 -1.01198,-8.76558 -0.47623,-3.15502 -1.2501,-6.23562 -0.75899,-3.09548 -1.90492,-6.35467 -1.14592,-3.27407 -2.39602,-6.01239 z m 11.89083,12.94747 q 3.14013,0 4.04794,-0.253 0.92269,-0.26788 1.05663,-1.01199 0.14882,-0.7441 0.0149,-1.32451 -0.13394,-0.59528 -0.84828,-2.33649 -0.69946,-1.7561 -1.72633,-2.27697 -1.01198,-0.53576 -5.10457,-0.53576 1.27986,2.87226 2.55973,7.73872 z"
           style="fill:url(#linearGradient5167);fill-opacity:1;stroke:#d923a7;stroke-width:2.20000005;stroke-miterlimit:4;stroke-dasharray:none;stroke-opacity:0.97647059"
           id="path5027"
           inkscape:connector-curvature="0" />
      </g>
    </g>
    <g
       id="g2998"
       transform="matrix(0.37371728,0,0,0.37371728,3.139148,317.58948)"
       inkscape:export-filename="C:\Users\grbulm\Desktop\dojologo.png"
       inkscape:export-xdpi="150"
       inkscape:export-ydpi="150">
      <g
         transform="matrix(0.67880498,0,0,0.67880498,33.767659,-76.996058)"
         id="g20781">
        <path
           style="fill:#ffffff;stroke:#000000;stroke-width:2;stroke-linecap:square;stroke-linejoin:round"
           inkscape:connector-curvature="0"
           d="m 365.195,151.425 c -1.483,0 -2.964,0.02 -4.437,0.062 -163.557,2.375 -295.563,135.82 -295.563,299.938 0,164.305 132.31,297.859 296.126,299.937 -81.015,-2.054 -146.125,-68.431 -146.125,-149.938 0,-82.8 67.199,-149.999 149.999,-149.999 82.8,0 150.001,-67.201 150.001,-150.001 0,-82.8 -67.201,-149.999 -150.001,-149.999 z"
           id="path2168" />
        <path
           style="stroke:#000000;stroke-width:2;stroke-linecap:square;stroke-linejoin:round"
           inkscape:connector-curvature="0"
           id="path7"
           d="m 365.195,751.362 c 1.483,0 2.965,-0.019 4.438,-0.062 163.557,-2.375 295.562,-135.82 295.562,-299.938 0,-164.305 -132.308,-297.859 -296.124,-299.937 81.013,2.054 146.125,68.431 146.125,149.938 0,82.8 -67.201,149.999 -150.001,149.999 -82.8,0 -149.999,67.201 -149.999,150.001 0,82.8 67.199,149.999 149.999,149.999 z" />
      </g>
      <g
         style="font-style:normal;font-variant:normal;font-weight:normal;font-stretch:normal;font-size:150px;line-height:125%;font-family:'OCR A Extended';-inkscape-font-specification:'OCR A Extended';text-align:start;writing-mode:lr-tb;text-anchor:start"
         id="text12">
        <path
           inkscape:connector-curvature="0"
           d="M 245.03201,149.90033 V 76.291931 c -1e-5,-3.222567 1.17186,-6.005768 3.51563,-8.349609 2.34373,-2.343654 5.12693,-3.515528 8.34961,-3.515625 h 38.3789 c 3.17376,9.7e-5 5.92034,1.171971 8.23975,3.515625 2.31926,2.343841 3.47893,5.127042 3.479,8.349609 v 73.608399 c -7e-5,3.27149 -1.15974,6.0669 -3.479,8.38623 -2.31941,2.31934 -5.11481,3.479 -8.38623,3.479 h -38.23242 c -3.32034,0 -6.12795,-1.15966 -8.42285,-3.479 -2.29494,-2.31933 -3.4424,-5.11474 -3.44239,-8.38623 z m 49.80469,-0.43945 V 76.877869 h -37.5 v 72.583011 z"
           style="font-style:normal;font-variant:normal;font-weight:normal;font-stretch:normal;font-size:150px;line-height:125%;font-family:'OCR A Extended';-inkscape-font-specification:'OCR A Extended';text-align:start;writing-mode:lr-tb;text-anchor:start"
           id="path3032" />
      </g>
      <g
         style="font-style:normal;font-variant:normal;font-weight:normal;font-stretch:normal;font-size:150px;line-height:125%;font-family:'OCR A Extended';-inkscape-font-specification:'OCR A Extended';text-align:start;writing-mode:lr-tb;text-anchor:start;fill:#ffffff"
         id="text14">
        <path
           inkscape:connector-curvature="0"
           d="m 259.03787,372.46088 h 18.89649 v -72.58301 h -18.60352 c -1.709,8e-5 -3.16164,-0.59806 -4.35791,-1.79443 -1.1963,-1.19621 -1.79445,-2.64884 -1.79443,-4.35792 -2e-5,-1.70889 0.59813,-3.16152 1.79443,-4.35791 1.19627,-1.19619 2.64891,-1.79433 4.35791,-1.79443 h 30.9082 v 84.8877 h 12.30469 v -25.63477 c -6e-5,-1.66012 0.59808,-3.10054 1.79444,-4.32129 1.19622,-1.22066 2.64885,-1.83101 4.35791,-1.83105 1.70891,4e-5 3.16154,0.59819 4.35791,1.79443 1.19621,1.19633 1.79435,2.64897 1.79443,4.35791 v 31.78711 c -8e-5,1.70899 -0.59822,3.16162 -1.79443,4.35791 -1.19637,1.19629 -2.649,1.79443 -4.35791,1.79443 h -49.65821 c -1.709,0 -3.16164,-0.62255 -4.35791,-1.86767 -1.1963,-1.24512 -1.79445,-2.72217 -1.79443,-4.43115 -2e-5,-1.66015 0.59813,-3.07617 1.79443,-4.24805 1.19627,-1.17186 2.64891,-1.7578 4.35791,-1.75781 z"
           style="font-style:normal;font-variant:normal;font-weight:normal;font-stretch:normal;font-size:150px;line-height:125%;font-family:'OCR A Extended';-inkscape-font-specification:'OCR A Extended';text-align:start;writing-mode:lr-tb;text-anchor:start;fill:#ffffff"
           id="path3029" />
      </g>
    </g>
  </g>
</svg>
